<mxfile host="app.diagrams.net" modified="2023-11-15T01:57:38.198Z" agent="Mozilla/5.0 (Windows NT 10.0; Win64; x64) AppleWebKit/537.36 (KHTML, like Gecko) Chrome/118.0.0.0 Safari/537.36" version="22.1.1" etag="tbyzec4v60kgGzKxNeK3" type="github">
  <diagram name="Page-1" id="xa_s4j9Y9mlsGVUMg-FO">
    <mxGraphModel>
      <root>
        <mxCell id="0" />
        <mxCell id="1" parent="0" />
      </root>
    </mxGraphModel>
  </diagram>
</mxfile>
